# xmcd CD database file
#
# Track frame offsets:
#	150
#	23815
#	44360
#	66757
#	86847
#	104595
#	133435
#	152672
#	167912
#	188722
#	222745
#
# Disc length: 3364 seconds
#
# Revision: 2
# Processed by: cddbd v1.5.1PL0 Copyright (c) Steve Scherf et al.
# Submitted via: CDex 1.51
#
DISCID=a50d220b
DTITLE=GLAY - pure soul
DYEAR=1998
DGENRE=Rock
TTITLE0=YOU MAY DREAM
TTITLE1=ビリビリクラッシュメン
TTITLE2=May Fair
TTITLE3=SOUL LOVE
TTITLE4=出逢ってしまった2人
TTITLE5=pure soul
TTITLE6=誘惑
TTITLE7=COME ON!!
TTITLE8=FRIEDCHICKEN and BEER
TTITLE9=3年後
TTITLE10=I'm in Love
EXTD=YEAR: 1998
EXTT0=
EXTT1=
EXTT2=
EXTT3=
EXTT4=
EXTT5=
EXTT6=
EXTT7=
EXTT8=
EXTT9=
EXTT10=
PLAYORDER=
